<svg width="60" height="60" viewBox="0 0 60 60" fill="none" xmlns="http://www.w3.org/2000/svg">
<path fill-rule="evenodd" clip-rule="evenodd" d="M30 60C46.5684 60 60 46.5684 60 30C60 13.4315 46.5684 0 30 0C13.4315 0 0 13.4315 0 30C0 46.5684 13.4315 60 30 60ZM30 56.4C44.5803 56.4 56.4 44.5803 56.4 30C56.4 15.4197 44.5803 3.6 30 3.6C15.4197 3.6 3.6 15.4197 3.6 30C3.6 44.5803 15.4197 56.4 30 56.4ZM30 52.8C42.5922 52.8 52.8 42.5922 52.8 30C52.8 17.4079 42.5922 7.2 30 7.2C17.4079 7.2 7.2 17.4079 7.2 30C7.2 42.5922 17.4079 52.8 30 52.8ZM30 49.2C40.6038 49.2 49.2 40.6038 49.2 30C49.2 19.3961 40.6038 10.8 30 10.8C19.3961 10.8 10.8 19.3961 10.8 30C10.8 40.6038 19.3961 49.2 30 49.2ZM45.6 30C45.6 38.6157 38.6157 45.6 30 45.6C21.3844 45.6 14.4 38.6157 14.4 30C14.4 21.3844 21.3844 14.4 30 14.4C38.6157 14.4 45.6 21.3844 45.6 30ZM42 30C42 36.6273 36.6273 42 30 42C23.3726 42 18 36.6273 18 30C18 23.3726 23.3726 18 30 18C36.6273 18 42 23.3726 42 30Z" fill="#AFABBB"/>
</svg>
