<svg width="1200" height="1200" viewBox="0 0 1200 1200" fill="none" xmlns="http://www.w3.org/2000/svg">
<g opacity="0.1" clip-path="url(#clip0_56_4)">
<path d="M423.021 138.13C461.164 138.13 492.086 107.208 492.086 69.0648C492.086 30.9214 461.164 0 423.021 0C384.877 0 353.956 30.9214 353.956 69.0648C353.956 107.208 384.877 138.13 423.021 138.13Z" fill="#AFABBB"/>
<path d="M599.521 138.13C637.665 138.13 668.586 107.208 668.586 69.0648C668.586 30.9214 637.665 0 599.521 0C561.378 0 530.456 30.9214 530.456 69.0648C530.456 107.208 561.378 138.13 599.521 138.13Z" fill="#AFABBB"/>
<path d="M776.979 138.13C815.123 138.13 846.044 107.208 846.044 69.0648C846.044 30.9214 815.123 0 776.979 0C738.836 0 707.915 30.9214 707.915 69.0648C707.915 107.208 738.836 138.13 776.979 138.13Z" fill="#AFABBB"/>
<path d="M423.021 315.588C461.164 315.588 492.086 284.666 492.086 246.523C492.086 208.38 461.164 177.458 423.021 177.458C384.877 177.458 353.956 208.38 353.956 246.523C353.956 284.666 384.877 315.588 423.021 315.588Z" fill="#AFABBB"/>
<path d="M246.523 315.588C284.666 315.588 315.588 284.666 315.588 246.523C315.588 208.38 284.666 177.458 246.523 177.458C208.379 177.458 177.458 208.38 177.458 246.523C177.458 284.666 208.379 315.588 246.523 315.588Z" fill="#AFABBB"/>
<path d="M599.521 315.588C637.665 315.588 668.586 284.666 668.586 246.523C668.586 208.38 637.665 177.458 599.521 177.458C561.378 177.458 530.456 208.38 530.456 246.523C530.456 284.666 561.378 315.588 599.521 315.588Z" fill="#AFABBB"/>
<path d="M776.979 315.588C815.123 315.588 846.044 284.666 846.044 246.523C846.044 208.38 815.123 177.458 776.979 177.458C738.836 177.458 707.915 208.38 707.915 246.523C707.915 284.666 738.836 315.588 776.979 315.588Z" fill="#AFABBB"/>
<path d="M953.477 315.588C991.621 315.588 1022.54 284.666 1022.54 246.523C1022.54 208.38 991.621 177.458 953.477 177.458C915.334 177.458 884.413 208.38 884.413 246.523C884.413 284.666 915.334 315.588 953.477 315.588Z" fill="#AFABBB"/>
<path d="M776.979 1200C815.123 1200 846.044 1169.08 846.044 1130.94C846.044 1092.79 815.123 1061.87 776.979 1061.87C738.836 1061.87 707.915 1092.79 707.915 1130.94C707.915 1169.08 738.836 1200 776.979 1200Z" fill="#AFABBB"/>
<path d="M599.521 1200C637.665 1200 668.586 1169.08 668.586 1130.94C668.586 1092.79 637.665 1061.87 599.521 1061.87C561.378 1061.87 530.456 1092.79 530.456 1130.94C530.456 1169.08 561.378 1200 599.521 1200Z" fill="#AFABBB"/>
<path d="M423.021 1200C461.164 1200 492.086 1169.08 492.086 1130.94C492.086 1092.79 461.164 1061.87 423.021 1061.87C384.877 1061.87 353.956 1092.79 353.956 1130.94C353.956 1169.08 384.877 1200 423.021 1200Z" fill="#AFABBB"/>
<path d="M776.979 1022.54C815.123 1022.54 846.044 991.623 846.044 953.48C846.044 915.336 815.123 884.415 776.979 884.415C738.836 884.415 707.915 915.336 707.915 953.48C707.915 991.623 738.836 1022.54 776.979 1022.54Z" fill="#AFABBB"/>
<path d="M953.477 1022.54C991.621 1022.54 1022.54 991.623 1022.54 953.48C1022.54 915.336 991.621 884.415 953.477 884.415C915.334 884.415 884.413 915.336 884.413 953.48C884.413 991.623 915.334 1022.54 953.477 1022.54Z" fill="#AFABBB"/>
<path d="M599.521 1022.54C637.665 1022.54 668.586 991.623 668.586 953.48C668.586 915.336 637.665 884.415 599.521 884.415C561.378 884.415 530.456 915.336 530.456 953.48C530.456 991.623 561.378 1022.54 599.521 1022.54Z" fill="#AFABBB"/>
<path d="M423.021 1022.54C461.164 1022.54 492.086 991.623 492.086 953.48C492.086 915.336 461.164 884.415 423.021 884.415C384.877 884.415 353.956 915.336 353.956 953.48C353.956 991.623 384.877 1022.54 423.021 1022.54Z" fill="#AFABBB"/>
<path d="M246.523 1022.54C284.666 1022.54 315.588 991.623 315.588 953.48C315.588 915.336 284.666 884.415 246.523 884.415C208.379 884.415 177.458 915.336 177.458 953.48C177.458 991.623 208.379 1022.54 246.523 1022.54Z" fill="#AFABBB"/>
<path d="M423.021 492.086C461.164 492.086 492.086 461.164 492.086 423.021C492.086 384.878 461.164 353.956 423.021 353.956C384.877 353.956 353.956 384.878 353.956 423.021C353.956 461.164 384.877 492.086 423.021 492.086Z" fill="#AFABBB"/>
<path d="M246.523 492.086C284.666 492.086 315.588 461.164 315.588 423.021C315.588 384.878 284.666 353.956 246.523 353.956C208.379 353.956 177.458 384.878 177.458 423.021C177.458 461.164 208.379 492.086 246.523 492.086Z" fill="#AFABBB"/>
<path d="M69.0646 492.086C107.208 492.086 138.13 461.164 138.13 423.021C138.13 384.878 107.208 353.956 69.0646 353.956C30.9212 353.956 0 384.878 0 423.021C0 461.164 30.9212 492.086 69.0646 492.086Z" fill="#AFABBB"/>
<path d="M599.521 492.086C637.665 492.086 668.586 461.164 668.586 423.021C668.586 384.878 637.665 353.956 599.521 353.956C561.378 353.956 530.456 384.878 530.456 423.021C530.456 461.164 561.378 492.086 599.521 492.086Z" fill="#AFABBB"/>
<path d="M776.979 492.086C815.123 492.086 846.044 461.164 846.044 423.021C846.044 384.878 815.123 353.956 776.979 353.956C738.836 353.956 707.915 384.878 707.915 423.021C707.915 461.164 738.836 492.086 776.979 492.086Z" fill="#AFABBB"/>
<path d="M953.477 492.086C991.621 492.086 1022.54 461.164 1022.54 423.021C1022.54 384.878 991.621 353.956 953.477 353.956C915.334 353.956 884.413 384.878 884.413 423.021C884.413 461.164 915.334 492.086 953.477 492.086Z" fill="#AFABBB"/>
<path d="M1130.94 492.086C1169.08 492.086 1200 461.164 1200 423.021C1200 384.878 1169.08 353.956 1130.94 353.956C1092.79 353.956 1061.87 384.878 1061.87 423.021C1061.87 461.164 1092.79 492.086 1130.94 492.086Z" fill="#AFABBB"/>
<path d="M423.021 668.584C461.164 668.584 492.086 637.662 492.086 599.519C492.086 561.375 461.164 530.454 423.021 530.454C384.877 530.454 353.956 561.375 353.956 599.519C353.956 637.662 384.877 668.584 423.021 668.584Z" fill="#AFABBB"/>
<path d="M246.523 668.584C284.666 668.584 315.588 637.662 315.588 599.519C315.588 561.375 284.666 530.454 246.523 530.454C208.379 530.454 177.458 561.375 177.458 599.519C177.458 637.662 208.379 668.584 246.523 668.584Z" fill="#AFABBB"/>
<path d="M69.0646 668.584C107.208 668.584 138.13 637.662 138.13 599.519C138.13 561.375 107.208 530.454 69.0646 530.454C30.9212 530.454 0 561.375 0 599.519C0 637.662 30.9212 668.584 69.0646 668.584Z" fill="#AFABBB"/>
<path d="M599.521 668.584C637.665 668.584 668.586 637.662 668.586 599.519C668.586 561.375 637.665 530.454 599.521 530.454C561.378 530.454 530.456 561.375 530.456 599.519C530.456 637.662 561.378 668.584 599.521 668.584Z" fill="#AFABBB"/>
<path d="M776.979 668.584C815.123 668.584 846.044 637.662 846.044 599.519C846.044 561.375 815.123 530.454 776.979 530.454C738.836 530.454 707.915 561.375 707.915 599.519C707.915 637.662 738.836 668.584 776.979 668.584Z" fill="#AFABBB"/>
<path d="M953.477 668.584C991.621 668.584 1022.54 637.662 1022.54 599.519C1022.54 561.375 991.621 530.454 953.477 530.454C915.334 530.454 884.413 561.375 884.413 599.519C884.413 637.662 915.334 668.584 953.477 668.584Z" fill="#AFABBB"/>
<path d="M1130.94 668.584C1169.08 668.584 1200 637.662 1200 599.519C1200 561.375 1169.08 530.454 1130.94 530.454C1092.79 530.454 1061.87 561.375 1061.87 599.519C1061.87 637.662 1092.79 668.584 1130.94 668.584Z" fill="#AFABBB"/>
<path d="M423.021 846.042C461.164 846.042 492.086 815.12 492.086 776.977C492.086 738.834 461.164 707.912 423.021 707.912C384.877 707.912 353.956 738.834 353.956 776.977C353.956 815.12 384.877 846.042 423.021 846.042Z" fill="#AFABBB"/>
<path d="M246.523 846.042C284.666 846.042 315.588 815.12 315.588 776.977C315.588 738.834 284.666 707.912 246.523 707.912C208.379 707.912 177.458 738.834 177.458 776.977C177.458 815.12 208.379 846.042 246.523 846.042Z" fill="#AFABBB"/>
<path d="M69.0646 846.042C107.208 846.042 138.13 815.12 138.13 776.977C138.13 738.834 107.208 707.912 69.0646 707.912C30.9212 707.912 0 738.834 0 776.977C0 815.12 30.9212 846.042 69.0646 846.042Z" fill="#AFABBB"/>
<path d="M599.521 846.042C637.665 846.042 668.586 815.12 668.586 776.977C668.586 738.834 637.665 707.912 599.521 707.912C561.378 707.912 530.456 738.834 530.456 776.977C530.456 815.12 561.378 846.042 599.521 846.042Z" fill="#AFABBB"/>
<path d="M776.979 846.042C815.123 846.042 846.044 815.12 846.044 776.977C846.044 738.834 815.123 707.912 776.979 707.912C738.836 707.912 707.915 738.834 707.915 776.977C707.915 815.12 738.836 846.042 776.979 846.042Z" fill="#AFABBB"/>
<path d="M953.477 846.042C991.621 846.042 1022.54 815.12 1022.54 776.977C1022.54 738.834 991.621 707.912 953.477 707.912C915.334 707.912 884.413 738.834 884.413 776.977C884.413 815.12 915.334 846.042 953.477 846.042Z" fill="#AFABBB"/>
<path d="M1130.94 846.042C1169.08 846.042 1200 815.12 1200 776.977C1200 738.834 1169.08 707.912 1130.94 707.912C1092.79 707.912 1061.87 738.834 1061.87 776.977C1061.87 815.12 1092.79 846.042 1130.94 846.042Z" fill="#AFABBB"/>
</g>
<defs>
<clipPath id="clip0_56_4">
<rect width="1200" height="1200" fill="white"/>
</clipPath>
</defs>
</svg>
